<?xml version="1.0" encoding="UTF-8" standalone="no"?><svg xmlns="http://www.w3.org/2000/svg" xmlns:xlink="http://www.w3.org/1999/xlink" contentScriptType="application/ecmascript" contentStyleType="text/css" height="1179px" preserveAspectRatio="none" style="width:1243px;height:1179px;" version="1.1" viewBox="0 0 1243 1179" width="1243px" zoomAndPan="magnify"><defs/><g><text fill="#000000" font-family="sans-serif" font-size="18" lengthAdjust="spacingAndGlyphs" textLength="741" x="263" y="19.2419">Le patron Command dans PlatformerMCR — enregistrer une fois, rejouer sur les clones</text><!--MD5=[11eec47fed9ea362018dbe9310d82a54]
cluster Invocateurs (deux)--><rect fill="#FFFFFF" height="195" style="stroke: #000000; stroke-width: 1.5;" width="440" x="785.5" y="180.0158"/><text fill="#000000" font-family="sans-serif" font-size="14" font-weight="bold" lengthAdjust="spacingAndGlyphs" textLength="130" x="940.5" y="196.9818">Invocateurs (deux)</text><!--MD5=[a72ffec7328b23d1068776b31cb9c2d2]
cluster Enregistrement (historique)--><rect fill="#FFFFFF" height="386.5" style="stroke: #000000; stroke-width: 1.5;" width="304" x="390.5" y="170.5158"/><text fill="#000000" font-family="sans-serif" font-size="14" font-weight="bold" lengthAdjust="spacingAndGlyphs" textLength="193" x="446" y="187.4818">Enregistrement (historique)</text><!--MD5=[6bb2904b928aa3f18c8c0a8f027514b3]
cluster Commands (l'intention sous forme d'objets)--><rect fill="#FFFFFF" height="552.5" style="stroke: #000000; stroke-width: 1.5;" width="456" x="382.5" y="593.5158"/><text fill="#000000" font-family="sans-serif" font-size="14" font-weight="bold" lengthAdjust="spacingAndGlyphs" textLength="307" x="457" y="610.4818">Commands (l'intention sous forme d'objets)</text><!--MD5=[9a808df1965dda04e10c695768e29939]
cluster Récepteurs--><rect fill="#FFFFFF" height="384" style="stroke: #000000; stroke-width: 1.5;" width="370" x="862.5" y="784.5158"/><text fill="#000000" font-family="sans-serif" font-size="14" font-weight="bold" lengthAdjust="spacingAndGlyphs" textLength="77" x="1009" y="801.4818">Récepteurs</text><!--MD5=[a8959cd4dfb2766b3381a4f1d29baa3d]
class PlayerCommandInvoker--><rect fill="#FEFECE" height="118.6158" id="PlayerCommandInvoker" style="stroke: #A80036; stroke-width: 1.5;" width="169" x="1041" y="240.0158"/><ellipse cx="1056.9" cy="261.36" fill="#ADD1B2" rx="11" ry="11" style="stroke: #A80036; stroke-width: 1.0;"/><path d="M1059.8688,267.0006 Q1059.2906,267.2975 1058.65,267.4381 Q1058.0094,267.5943 1057.3063,267.5943 Q1054.8063,267.5943 1053.4781,265.9537 Q1052.1656,264.2975 1052.1656,261.1725 Q1052.1656,258.0475 1053.4781,256.3912 Q1054.8063,254.735 1057.3063,254.735 Q1058.0094,254.735 1058.65,254.8912 Q1059.3063,255.0475 1059.8688,255.3443 L1059.8688,258.0631 Q1059.2438,257.485 1058.65,257.2193 Q1058.0563,256.9381 1057.4313,256.9381 Q1056.0875,256.9381 1055.4,258.0162 Q1054.7125,259.0787 1054.7125,261.1725 Q1054.7125,263.2662 1055.4,264.3443 Q1056.0875,265.4068 1057.4313,265.4068 Q1058.0563,265.4068 1058.65,265.1412 Q1059.2438,264.86 1059.8688,264.2818 L1059.8688,267.0006 Z "/><text fill="#000000" font-family="sans-serif" font-size="12" font-style="italic" lengthAdjust="spacingAndGlyphs" textLength="118" x="1079.6" y="257.8439">«Invocateur — direct»</text><text fill="#000000" font-family="sans-serif" font-size="12" lengthAdjust="spacingAndGlyphs" textLength="135" x="1071.1" y="274.1881">PlayerCommandInvoker</text><line style="stroke: #A80036; stroke-width: 1.5;" x1="1042" x2="1209" y1="282.7041" y2="282.7041"/><text fill="#000000" font-family="sans-serif" font-size="11" lengthAdjust="spacingAndGlyphs" textLength="100" x="1047" y="298.463">-lastMove : Vector2</text><text fill="#000000" font-family="sans-serif" font-size="11" lengthAdjust="spacingAndGlyphs" textLength="106" x="1047" y="313.4449">-lastJumpHeld : bool</text><text fill="#000000" font-family="sans-serif" font-size="11" lengthAdjust="spacingAndGlyphs" textLength="157" x="1047" y="328.4268">+Timeline : CommandTimeline</text><line style="stroke: #A80036; stroke-width: 1.5;" x1="1042" x2="1209" y1="335.6497" y2="335.6497"/><text fill="#000000" font-family="sans-serif" font-size="11" lengthAdjust="spacingAndGlyphs" textLength="123" x="1047" y="351.4087">+Tick(tick : int, dt : float)</text><!--MD5=[84e56a68070f615960933add9a29f19b]
class ClonePlayback--><rect fill="#FEFECE" height="80.652" id="ClonePlayback" style="stroke: #A80036; stroke-width: 1.5;" width="205" x="801" y="259.0158"/><ellipse cx="843.9" cy="280.36" fill="#ADD1B2" rx="11" ry="11" style="stroke: #A80036; stroke-width: 1.0;"/><path d="M846.8688,286.0006 Q846.2906,286.2975 845.65,286.4381 Q845.0094,286.5943 844.3063,286.5943 Q841.8063,286.5943 840.4781,284.9537 Q839.1656,283.2975 839.1656,280.1725 Q839.1656,277.0475 840.4781,275.3912 Q841.8063,273.735 844.3063,273.735 Q845.0094,273.735 845.65,273.8912 Q846.3063,274.0475 846.8688,274.3443 L846.8688,277.0631 Q846.2438,276.485 845.65,276.2193 Q845.0563,275.9381 844.4313,275.9381 Q843.0875,275.9381 842.4,277.0162 Q841.7125,278.0787 841.7125,280.1725 Q841.7125,282.2662 842.4,283.3443 Q843.0875,284.4068 844.4313,284.4068 Q845.0563,284.4068 845.65,284.1412 Q846.2438,283.86 846.8688,283.2818 L846.8688,286.0006 Z "/><text fill="#000000" font-family="sans-serif" font-size="12" font-style="italic" lengthAdjust="spacingAndGlyphs" textLength="115" x="862.1" y="276.8439">«Invocateur — rejeu»</text><text fill="#000000" font-family="sans-serif" font-size="12" lengthAdjust="spacingAndGlyphs" textLength="81" x="879.1" y="293.1881">ClonePlayback</text><line style="stroke: #A80036; stroke-width: 1.5;" x1="802" x2="1005" y1="301.7041" y2="301.7041"/><text fill="#000000" font-family="sans-serif" font-size="11" lengthAdjust="spacingAndGlyphs" textLength="193" x="807" y="317.463">+Play(recording : CommandTimeline)</text><text fill="#000000" font-family="sans-serif" font-size="11" lengthAdjust="spacingAndGlyphs" textLength="123" x="807" y="332.4449">+Tick(tick : int, dt : float)</text><!--MD5=[4c1743adb9d319d9ea4500fe44cb554b]
class CommandTimeline--><rect fill="#FEFECE" height="137.8913" id="CommandTimeline" style="stroke: #A80036; stroke-width: 1.5;" width="271" x="407" y="230.5158"/><ellipse cx="485.25" cy="246.5158" fill="#ADD1B2" rx="11" ry="11" style="stroke: #A80036; stroke-width: 1.0;"/><path d="M488.2188,252.1565 Q487.6406,252.4533 487,252.594 Q486.3594,252.7502 485.6563,252.7502 Q483.1563,252.7502 481.8281,251.1096 Q480.5156,249.4533 480.5156,246.3283 Q480.5156,243.2033 481.8281,241.5471 Q483.1563,239.8908 485.6563,239.8908 Q486.3594,239.8908 487,240.0471 Q487.6563,240.2033 488.2188,240.5002 L488.2188,243.219 Q487.5938,242.6408 487,242.3752 Q486.4063,242.094 485.7813,242.094 Q484.4375,242.094 483.75,243.1721 Q483.0625,244.2346 483.0625,246.3283 Q483.0625,248.4221 483.75,249.5002 Q484.4375,250.5627 485.7813,250.5627 Q486.4063,250.5627 487,250.2971 Q487.5938,250.0158 488.2188,249.4377 L488.2188,252.1565 Z "/><text fill="#000000" font-family="sans-serif" font-size="12" lengthAdjust="spacingAndGlyphs" textLength="106" x="505.75" y="251.1719">CommandTimeline</text><line style="stroke: #A80036; stroke-width: 1.5;" x1="408" x2="677" y1="262.5158" y2="262.5158"/><text fill="#000000" font-family="sans-serif" font-size="11" lengthAdjust="spacingAndGlyphs" textLength="136" x="413" y="278.2748">-frames : List&lt;TickRecord&gt;</text><text fill="#000000" font-family="sans-serif" font-size="11" lengthAdjust="spacingAndGlyphs" textLength="119" x="413" y="293.2566">-recordingEndTick : int</text><line style="stroke: #A80036; stroke-width: 1.5;" x1="408" x2="677" y1="300.4796" y2="300.4796"/><text fill="#000000" font-family="sans-serif" font-size="11" lengthAdjust="spacingAndGlyphs" textLength="238" x="413" y="316.2385">+Record(tick : int, changed : List&lt;ICommand&gt;)</text><text fill="#000000" font-family="sans-serif" font-size="11" lengthAdjust="spacingAndGlyphs" textLength="168" x="413" y="331.2204">+GetAtTick(tick : int) : TickRecord</text><text fill="#000000" font-family="sans-serif" font-size="11" lengthAdjust="spacingAndGlyphs" textLength="259" x="413" y="346.2023">+SliceFromTick(fromTick : int) : CommandTimeline</text><text fill="#000000" font-family="sans-serif" font-size="11" lengthAdjust="spacingAndGlyphs" textLength="145" x="413" y="361.1842">+TruncateAfterTick(tick : int)</text><!--MD5=[053564343cf9b4f0d06ac9adf6b96853]
class TickRecord--><rect fill="#FEFECE" height="69.9638" id="TickRecord" style="stroke: #A80036; stroke-width: 1.5;" width="174" x="489.5" y="471.0158"/><ellipse cx="541.75" cy="487.0158" fill="#ADD1B2" rx="11" ry="11" style="stroke: #A80036; stroke-width: 1.0;"/><path d="M544.7188,492.6565 Q544.1406,492.9533 543.5,493.094 Q542.8594,493.2502 542.1563,493.2502 Q539.6563,493.2502 538.3281,491.6096 Q537.0156,489.9533 537.0156,486.8283 Q537.0156,483.7033 538.3281,482.0471 Q539.6563,480.3908 542.1563,480.3908 Q542.8594,480.3908 543.5,480.5471 Q544.1563,480.7033 544.7188,481.0002 L544.7188,483.719 Q544.0938,483.1408 543.5,482.8752 Q542.9063,482.594 542.2813,482.594 Q540.9375,482.594 540.25,483.6721 Q539.5625,484.7346 539.5625,486.8283 Q539.5625,488.9221 540.25,490.0002 Q540.9375,491.0627 542.2813,491.0627 Q542.9063,491.0627 543.5,490.7971 Q544.0938,490.5158 544.7188,489.9377 L544.7188,492.6565 Z "/><text fill="#000000" font-family="sans-serif" font-size="12" lengthAdjust="spacingAndGlyphs" textLength="61" x="562.25" y="491.6719">TickRecord</text><line style="stroke: #A80036; stroke-width: 1.5;" x1="490.5" x2="662.5" y1="503.0158" y2="503.0158"/><text fill="#000000" font-family="sans-serif" font-size="11" lengthAdjust="spacingAndGlyphs" textLength="49" x="495.5" y="518.7748">+Tick : int</text><text fill="#000000" font-family="sans-serif" font-size="11" lengthAdjust="spacingAndGlyphs" textLength="162" x="495.5" y="533.7566">+Commands : List&lt;ICommand&gt;</text><!--MD5=[11008d568be52109e77f2977709dd853]
class ICommand--><rect fill="#FEFECE" height="65.6701" id="ICommand" style="stroke: #A80036; stroke-width: 1.5;" width="138" x="641.5" y="653.5158"/><ellipse cx="674.95" cy="674.86" fill="#B4A7E5" rx="11" ry="11" style="stroke: #A80036; stroke-width: 1.0;"/><path d="M670.8719,670.6256 L670.8719,668.4693 L678.2625,668.4693 L678.2625,670.6256 L675.7938,670.6256 L675.7938,678.7037 L678.2625,678.7037 L678.2625,680.86 L670.8719,680.86 L670.8719,678.7037 L673.3406,678.7037 L673.3406,670.6256 L670.8719,670.6256 Z "/><text fill="#000000" font-family="sans-serif" font-size="12" font-style="italic" lengthAdjust="spacingAndGlyphs" textLength="69" x="691.05" y="671.3439">«Command»</text><text fill="#000000" font-family="sans-serif" font-size="12" font-style="italic" lengthAdjust="spacingAndGlyphs" textLength="61" x="695.05" y="687.6881">ICommand</text><line style="stroke: #A80036; stroke-width: 1.5;" x1="642.5" x2="778.5" y1="696.2041" y2="696.2041"/><text fill="#000000" font-family="sans-serif" font-size="11" lengthAdjust="spacingAndGlyphs" textLength="126" x="647.5" y="711.963">+Execute(target : Player)</text><!--MD5=[5d346fa676d0dac93607ddea24c3e445]
class IStickyCommand--><rect fill="#FEFECE" height="42.6882" id="IStickyCommand" style="stroke: #A80036; stroke-width: 1.5;" width="123" x="399" y="878.5158"/><ellipse cx="414" cy="899.86" fill="#B4A7E5" rx="11" ry="11" style="stroke: #A80036; stroke-width: 1.0;"/><path d="M409.9219,895.6256 L409.9219,893.4693 L417.3125,893.4693 L417.3125,895.6256 L414.8438,895.6256 L414.8438,903.7037 L417.3125,903.7037 L417.3125,905.86 L409.9219,905.86 L409.9219,903.7037 L412.3906,903.7037 L412.3906,895.6256 L409.9219,895.6256 Z "/><text fill="#000000" font-family="sans-serif" font-size="12" font-style="italic" lengthAdjust="spacingAndGlyphs" textLength="67" x="440" y="896.3439">«marqueur»</text><text fill="#000000" font-family="sans-serif" font-size="12" font-style="italic" lengthAdjust="spacingAndGlyphs" textLength="91" x="428" y="912.6881">IStickyCommand</text><!--MD5=[8b2d29e63c4cb10acfe18e03da81e21a]
class MoveCommand--><rect fill="#FEFECE" height="54.9819" id="MoveCommand" style="stroke: #A80036; stroke-width: 1.5;" width="121" x="399" y="1075.0158"/><ellipse cx="414" cy="1091.0158" fill="#ADD1B2" rx="11" ry="11" style="stroke: #A80036; stroke-width: 1.0;"/><path d="M416.9688,1096.6565 Q416.3906,1096.9533 415.75,1097.094 Q415.1094,1097.2502 414.4063,1097.2502 Q411.9063,1097.2502 410.5781,1095.6096 Q409.2656,1093.9533 409.2656,1090.8283 Q409.2656,1087.7033 410.5781,1086.0471 Q411.9063,1084.3908 414.4063,1084.3908 Q415.1094,1084.3908 415.75,1084.5471 Q416.4063,1084.7033 416.9688,1085.0002 L416.9688,1087.719 Q416.3438,1087.1408 415.75,1086.8752 Q415.1563,1086.594 414.5313,1086.594 Q413.1875,1086.594 412.5,1087.6721 Q411.8125,1088.7346 411.8125,1090.8283 Q411.8125,1092.9221 412.5,1094.0002 Q413.1875,1095.0627 414.5313,1095.0627 Q415.1563,1095.0627 415.75,1094.7971 Q416.3438,1094.5158 416.9688,1093.9377 L416.9688,1096.6565 Z "/><text fill="#000000" font-family="sans-serif" font-size="12" lengthAdjust="spacingAndGlyphs" textLength="89" x="428" y="1095.6719">MoveCommand</text><line style="stroke: #A80036; stroke-width: 1.5;" x1="400" x2="519" y1="1107.0158" y2="1107.0158"/><text fill="#000000" font-family="sans-serif" font-size="11" lengthAdjust="spacingAndGlyphs" textLength="100" x="405" y="1122.7748">-direction : Vector2</text><!--MD5=[95c0e36c02a248542e2934e43df94fde]
class JumpHeldCommand--><rect fill="#FEFECE" height="54.9819" id="JumpHeldCommand" style="stroke: #A80036; stroke-width: 1.5;" width="144" x="555.5" y="1075.0158"/><ellipse cx="570.5" cy="1091.0158" fill="#ADD1B2" rx="11" ry="11" style="stroke: #A80036; stroke-width: 1.0;"/><path d="M573.4688,1096.6565 Q572.8906,1096.9533 572.25,1097.094 Q571.6094,1097.2502 570.9063,1097.2502 Q568.4063,1097.2502 567.0781,1095.6096 Q565.7656,1093.9533 565.7656,1090.8283 Q565.7656,1087.7033 567.0781,1086.0471 Q568.4063,1084.3908 570.9063,1084.3908 Q571.6094,1084.3908 572.25,1084.5471 Q572.9063,1084.7033 573.4688,1085.0002 L573.4688,1087.719 Q572.8438,1087.1408 572.25,1086.8752 Q571.6563,1086.594 571.0313,1086.594 Q569.6875,1086.594 569,1087.6721 Q568.3125,1088.7346 568.3125,1090.8283 Q568.3125,1092.9221 569,1094.0002 Q569.6875,1095.0627 571.0313,1095.0627 Q571.6563,1095.0627 572.25,1094.7971 Q572.8438,1094.5158 573.4688,1093.9377 L573.4688,1096.6565 Z "/><text fill="#000000" font-family="sans-serif" font-size="12" lengthAdjust="spacingAndGlyphs" textLength="112" x="584.5" y="1095.6719">JumpHeldCommand</text><line style="stroke: #A80036; stroke-width: 1.5;" x1="556.5" x2="698.5" y1="1107.0158" y2="1107.0158"/><text fill="#000000" font-family="sans-serif" font-size="11" lengthAdjust="spacingAndGlyphs" textLength="60" x="561.5" y="1122.7748">-held : bool</text><!--MD5=[33f0bccabd983292ceecf8ecb9b8b094]
class JumpCommand--><rect fill="#FEFECE" height="32" id="JumpCommand" style="stroke: #A80036; stroke-width: 1.5;" width="118" x="704.5" y="884.0158"/><ellipse cx="719.5" cy="900.0158" fill="#ADD1B2" rx="11" ry="11" style="stroke: #A80036; stroke-width: 1.0;"/><path d="M722.4688,905.6565 Q721.8906,905.9533 721.25,906.094 Q720.6094,906.2502 719.9063,906.2502 Q717.4063,906.2502 716.0781,904.6096 Q714.7656,902.9533 714.7656,899.8283 Q714.7656,896.7033 716.0781,895.0471 Q717.4063,893.3908 719.9063,893.3908 Q720.6094,893.3908 721.25,893.5471 Q721.9063,893.7033 722.4688,894.0002 L722.4688,896.719 Q721.8438,896.1408 721.25,895.8752 Q720.6563,895.594 720.0313,895.594 Q718.6875,895.594 718,896.6721 Q717.3125,897.7346 717.3125,899.8283 Q717.3125,901.9221 718,903.0002 Q718.6875,904.0627 720.0313,904.0627 Q720.6563,904.0627 721.25,903.7971 Q721.8438,903.5158 722.4688,902.9377 L722.4688,905.6565 Z "/><text fill="#000000" font-family="sans-serif" font-size="12" lengthAdjust="spacingAndGlyphs" textLength="86" x="733.5" y="904.6719">JumpCommand</text><!--MD5=[a83c1044eca09661ed15d053c17db170]
class UseCommand--><rect fill="#FEFECE" height="32" id="UseCommand" style="stroke: #A80036; stroke-width: 1.5;" width="112" x="557.5" y="884.0158"/><ellipse cx="572.5" cy="900.0158" fill="#ADD1B2" rx="11" ry="11" style="stroke: #A80036; stroke-width: 1.0;"/><path d="M575.4688,905.6565 Q574.8906,905.9533 574.25,906.094 Q573.6094,906.2502 572.9063,906.2502 Q570.4063,906.2502 569.0781,904.6096 Q567.7656,902.9533 567.7656,899.8283 Q567.7656,896.7033 569.0781,895.0471 Q570.4063,893.3908 572.9063,893.3908 Q573.6094,893.3908 574.25,893.5471 Q574.9063,893.7033 575.4688,894.0002 L575.4688,896.719 Q574.8438,896.1408 574.25,895.8752 Q573.6563,895.594 573.0313,895.594 Q571.6875,895.594 571,896.6721 Q570.3125,897.7346 570.3125,899.8283 Q570.3125,901.9221 571,903.0002 Q571.6875,904.0627 573.0313,904.0627 Q573.6563,904.0627 574.25,903.7971 Q574.8438,903.5158 575.4688,902.9377 L575.4688,905.6565 Z "/><text fill="#000000" font-family="sans-serif" font-size="12" lengthAdjust="spacingAndGlyphs" textLength="80" x="586.5" y="904.6719">UseCommand</text><!--MD5=[2cb47ba637a0d19583e6199456f6ad0b]
class Player--><rect fill="#FEFECE" height="110.6158" id="Player" style="stroke: #A80036; stroke-width: 1.5;" width="149" x="878" y="844.5158"/><ellipse cx="897.95" cy="865.86" fill="#ADD1B2" rx="11" ry="11" style="stroke: #A80036; stroke-width: 1.0;"/><path d="M900.9188,871.5006 Q900.3406,871.7975 899.7,871.9381 Q899.0594,872.0943 898.3563,872.0943 Q895.8563,872.0943 894.5281,870.4537 Q893.2156,868.7975 893.2156,865.6725 Q893.2156,862.5475 894.5281,860.8912 Q895.8563,859.235 898.3563,859.235 Q899.0594,859.235 899.7,859.3912 Q900.3563,859.5475 900.9188,859.8443 L900.9188,862.5631 Q900.2938,861.985 899.7,861.7193 Q899.1063,861.4381 898.4813,861.4381 Q897.1375,861.4381 896.45,862.5162 Q895.7625,863.5787 895.7625,865.6725 Q895.7625,867.7662 896.45,868.8443 Q897.1375,869.9068 898.4813,869.9068 Q899.1063,869.9068 899.7,869.6412 Q900.2938,869.36 900.9188,868.7818 L900.9188,871.5006 Z "/><text fill="#000000" font-family="sans-serif" font-size="12" font-style="italic" lengthAdjust="spacingAndGlyphs" textLength="110" x="911.05" y="862.3439">«Récepteur (façade)»</text><text fill="#000000" font-family="sans-serif" font-size="12" lengthAdjust="spacingAndGlyphs" textLength="35" x="948.55" y="878.6881">Player</text><line style="stroke: #A80036; stroke-width: 1.5;" x1="879" x2="1026" y1="887.2041" y2="887.2041"/><text fill="#000000" font-family="sans-serif" font-size="11" lengthAdjust="spacingAndGlyphs" textLength="137" x="884" y="902.963">+Move(direction : Vector2)</text><text fill="#000000" font-family="sans-serif" font-size="11" lengthAdjust="spacingAndGlyphs" textLength="39" x="884" y="917.9449">+Jump()</text><text fill="#000000" font-family="sans-serif" font-size="11" lengthAdjust="spacingAndGlyphs" textLength="135" x="884" y="932.9268">+SetJumpHeld(held : bool)</text><text fill="#000000" font-family="sans-serif" font-size="11" lengthAdjust="spacingAndGlyphs" textLength="31" x="884" y="947.9087">+Use()</text><!--MD5=[91b737a0aa6758b352ed748d11ff2125]
class PlayerController--><rect fill="#FEFECE" height="99.9276" id="PlayerController" style="stroke: #A80036; stroke-width: 1.5;" width="147" x="879" y="1052.5158"/><ellipse cx="904.8" cy="1068.5158" fill="#ADD1B2" rx="11" ry="11" style="stroke: #A80036; stroke-width: 1.0;"/><path d="M907.7688,1074.1565 Q907.1906,1074.4533 906.55,1074.594 Q905.9094,1074.7502 905.2063,1074.7502 Q902.7063,1074.7502 901.3781,1073.1096 Q900.0656,1071.4533 900.0656,1068.3283 Q900.0656,1065.2033 901.3781,1063.5471 Q902.7063,1061.8908 905.2063,1061.8908 Q905.9094,1061.8908 906.55,1062.0471 Q907.2063,1062.2033 907.7688,1062.5002 L907.7688,1065.219 Q907.1438,1064.6408 906.55,1064.3752 Q905.9563,1064.094 905.3313,1064.094 Q903.9875,1064.094 903.3,1065.1721 Q902.6125,1066.2346 902.6125,1068.3283 Q902.6125,1070.4221 903.3,1071.5002 Q903.9875,1072.5627 905.3313,1072.5627 Q905.9563,1072.5627 906.55,1072.2971 Q907.1438,1072.0158 907.7688,1071.4377 L907.7688,1074.1565 Z "/><text fill="#000000" font-family="sans-serif" font-size="12" lengthAdjust="spacingAndGlyphs" textLength="91" x="921.2" y="1073.1719">PlayerController</text><line style="stroke: #A80036; stroke-width: 1.5;" x1="880" x2="1025" y1="1084.5158" y2="1084.5158"/><text fill="#000000" font-family="sans-serif" font-size="11" lengthAdjust="spacingAndGlyphs" textLength="132" x="885" y="1100.2748">+SetDirection(d : Vector2)</text><text fill="#000000" font-family="sans-serif" font-size="11" lengthAdjust="spacingAndGlyphs" textLength="81" x="885" y="1115.2566">+RequestJump()</text><text fill="#000000" font-family="sans-serif" font-size="11" lengthAdjust="spacingAndGlyphs" textLength="135" x="885" y="1130.2385">+SetJumpHeld(held : bool)</text><text fill="#000000" font-family="sans-serif" font-size="11" lengthAdjust="spacingAndGlyphs" textLength="123" x="885" y="1145.2204">+Tick(tick : int, dt : float)</text><!--MD5=[29fe81ce19ccc2fa305f6c96606b908c]
class InteractionDetector--><rect fill="#FEFECE" height="54.9819" id="InteractionDetector" style="stroke: #A80036; stroke-width: 1.5;" width="155" x="1061" y="1075.0158"/><ellipse cx="1081.85" cy="1091.0158" fill="#ADD1B2" rx="11" ry="11" style="stroke: #A80036; stroke-width: 1.0;"/><path d="M1084.8188,1096.6565 Q1084.2406,1096.9533 1083.6,1097.094 Q1082.9594,1097.2502 1082.2563,1097.2502 Q1079.7563,1097.2502 1078.4281,1095.6096 Q1077.1156,1093.9533 1077.1156,1090.8283 Q1077.1156,1087.7033 1078.4281,1086.0471 Q1079.7563,1084.3908 1082.2563,1084.3908 Q1082.9594,1084.3908 1083.6,1084.5471 Q1084.2563,1084.7033 1084.8188,1085.0002 L1084.8188,1087.719 Q1084.1938,1087.1408 1083.6,1086.8752 Q1083.0063,1086.594 1082.3813,1086.594 Q1081.0375,1086.594 1080.35,1087.6721 Q1079.6625,1088.7346 1079.6625,1090.8283 Q1079.6625,1092.9221 1080.35,1094.0002 Q1081.0375,1095.0627 1082.3813,1095.0627 Q1083.0063,1095.0627 1083.6,1094.7971 Q1084.1938,1094.5158 1084.8188,1093.9377 L1084.8188,1096.6565 Z "/><text fill="#000000" font-family="sans-serif" font-size="12" lengthAdjust="spacingAndGlyphs" textLength="110" x="1097.15" y="1095.6719">InteractionDetector</text><line style="stroke: #A80036; stroke-width: 1.5;" x1="1062" x2="1215" y1="1107.0158" y2="1107.0158"/><text fill="#000000" font-family="sans-serif" font-size="11" lengthAdjust="spacingAndGlyphs" textLength="143" x="1067" y="1122.7748">+GetClosest() : IInteractable</text><!--MD5=[fd0984f521ff2785ce2ac798274caaf5]
class RewindDirector--><rect fill="#FEFECE" height="32" id="RewindDirector" style="stroke: #A80036; stroke-width: 1.5;" width="118" x="577.5" y="44.0158"/><ellipse cx="592.5" cy="60.0158" fill="#ADD1B2" rx="11" ry="11" style="stroke: #A80036; stroke-width: 1.0;"/><path d="M595.4688,65.6565 Q594.8906,65.9533 594.25,66.094 Q593.6094,66.2502 592.9063,66.2502 Q590.4063,66.2502 589.0781,64.6096 Q587.7656,62.9533 587.7656,59.8283 Q587.7656,56.7033 589.0781,55.0471 Q590.4063,53.3908 592.9063,53.3908 Q593.6094,53.3908 594.25,53.5471 Q594.9063,53.7033 595.4688,54.0002 L595.4688,56.719 Q594.8438,56.1408 594.25,55.8752 Q593.6563,55.594 593.0313,55.594 Q591.6875,55.594 591,56.6721 Q590.3125,57.7346 590.3125,59.8283 Q590.3125,61.9221 591,63.0002 Q591.6875,64.0627 593.0313,64.0627 Q593.6563,64.0627 594.25,63.7971 Q594.8438,63.5158 595.4688,62.9377 L595.4688,65.6565 Z "/><text fill="#000000" font-family="sans-serif" font-size="12" lengthAdjust="spacingAndGlyphs" textLength="86" x="606.5" y="64.6719">RewindDirector</text><!--MD5=[afb74f3339bd1c66eb2427c73c682353]
class GameClock--><rect fill="#FEFECE" height="54.9819" id="GameClock" style="stroke: #A80036; stroke-width: 1.5;" width="96" x="1021.5" y="32.5158"/><ellipse cx="1036.5" cy="48.5158" fill="#ADD1B2" rx="11" ry="11" style="stroke: #A80036; stroke-width: 1.0;"/><path d="M1039.4688,54.1565 Q1038.8906,54.4533 1038.25,54.594 Q1037.6094,54.7502 1036.9063,54.7502 Q1034.4063,54.7502 1033.0781,53.1096 Q1031.7656,51.4533 1031.7656,48.3283 Q1031.7656,45.2033 1033.0781,43.5471 Q1034.4063,41.8908 1036.9063,41.8908 Q1037.6094,41.8908 1038.25,42.0471 Q1038.9063,42.2033 1039.4688,42.5002 L1039.4688,45.219 Q1038.8438,44.6408 1038.25,44.3752 Q1037.6563,44.094 1037.0313,44.094 Q1035.6875,44.094 1035,45.1721 Q1034.3125,46.2346 1034.3125,48.3283 Q1034.3125,50.4221 1035,51.5002 Q1035.6875,52.5627 1037.0313,52.5627 Q1037.6563,52.5627 1038.25,52.2971 Q1038.8438,52.0158 1039.4688,51.4377 L1039.4688,54.1565 Z "/><text fill="#000000" font-family="sans-serif" font-size="12" lengthAdjust="spacingAndGlyphs" textLength="64" x="1050.5" y="53.1719">GameClock</text><line style="stroke: #A80036; stroke-width: 1.5;" x1="1022.5" x2="1116.5" y1="64.5158" y2="64.5158"/><text fill="#000000" font-family="sans-serif" font-size="11" lengthAdjust="spacingAndGlyphs" textLength="49" x="1027.5" y="80.2748">+Tick : int</text><path d="M96.5,465.5158 L96.5,546.3399 A0,0 0 0 0 96.5,546.3399 L336.62,546.3399 L641.27,659.4958 L344.62,546.3399 L374.5,546.3399 A0,0 0 0 0 374.5,546.3399 L374.5,475.5158 L364.5,465.5158 L96.5,465.5158 A0,0 0 0 0 96.5,465.5158 " fill="#FBFB77" style="stroke: #A80036; stroke-width: 1.0;"/><path d="M364.5,465.5158 L364.5,475.5158 L374.5,475.5158 L364.5,465.5158 " fill="#FBFB77" style="stroke: #A80036; stroke-width: 1.0;"/><text fill="#000000" font-family="sans-serif" font-size="13" font-weight="bold" lengthAdjust="spacingAndGlyphs" textLength="112" x="102.5" y="484.4129">L'adaptation clé :</text><text fill="#000000" font-family="sans-serif" font-size="13" lengthAdjust="spacingAndGlyphs" textLength="129" x="217.5" y="484.4129">le récepteur est passé</text><text fill="#000000" font-family="sans-serif" font-size="13" lengthAdjust="spacingAndGlyphs" textLength="60" x="102.5" y="502.1189">à Execute,</text><text fill="#000000" font-family="sans-serif" font-size="13" font-weight="bold" lengthAdjust="spacingAndGlyphs" textLength="194" x="165.5" y="502.1189">pas stocké dans la commande</text><text fill="#000000" font-family="sans-serif" font-size="13" lengthAdjust="spacingAndGlyphs" textLength="238" x="102.5" y="519.8249">→ la même instance enregistrée pilote le</text><text fill="#000000" font-family="sans-serif" font-size="13" lengthAdjust="spacingAndGlyphs" textLength="182" x="102.5" y="537.5309">joueur en direct, puis un clone.</text><path d="M6,655.0158 L6,718.1339 A0,0 0 0 0 6,718.1339 L222.05,718.1339 L433.78,878.3958 L230.05,718.1339 L367,718.1339 A0,0 0 0 0 367,718.1339 L367,665.0158 L357,655.0158 L6,655.0158 A0,0 0 0 0 6,655.0158 " fill="#FBFB77" style="stroke: #A80036; stroke-width: 1.0;"/><path d="M357,655.0158 L357,665.0158 L367,665.0158 L357,655.0158 " fill="#FBFB77" style="stroke: #A80036; stroke-width: 1.0;"/><text fill="#000000" font-family="sans-serif" font-size="13" lengthAdjust="spacingAndGlyphs" textLength="264" x="12" y="673.9129">Sticky = l'effet persiste jusqu'au changement</text><text fill="#000000" font-family="sans-serif" font-size="13" lengthAdjust="spacingAndGlyphs" textLength="340" x="12" y="691.6189">→ journalisé uniquement au changement (journal creux) ;</text><text fill="#000000" font-family="sans-serif" font-size="13" lengthAdjust="spacingAndGlyphs" textLength="280" x="12" y="709.3249">une tranche ré-établit l'état sticky à son départ.</text><!--MD5=[fca7806d7a5bab08cb84622266d566fa]
reverse link ICommand to IStickyCommand--><path d="M623.09,722.6358 C594.75,736.6758 564.47,754.7458 540.5,776.5158 C507.78,806.2258 482.58,852.1458 469.79,878.5058 " fill="none" id="ICommand&lt;-IStickyCommand" style="stroke: #A80036; stroke-width: 1.0;"/><polygon fill="none" points="620.28,716.2258,641.35,713.9958,626.27,728.8758,620.28,716.2258" style="stroke: #A80036; stroke-width: 1.0;"/><!--MD5=[0e258337e1f3a763790aca1c0f7a150c]
reverse link IStickyCommand to MoveCommand--><path d="M460.3,941.7658 C460.1,981.5358 459.8,1040.8758 459.63,1074.9258 " fill="none" id="IStickyCommand&lt;-MoveCommand" style="stroke: #A80036; stroke-width: 1.0; stroke-dasharray: 7.0,7.0;"/><polygon fill="none" points="453.3,941.6858,460.4,921.7158,467.3,941.7558,453.3,941.6858" style="stroke: #A80036; stroke-width: 1.0;"/><!--MD5=[7dc660a06838f588268a3525d17f4f2f]
reverse link IStickyCommand to JumpHeldCommand--><path d="M490.6,937.1558 C523.63,976.8158 575.88,1039.5358 605.35,1074.9258 " fill="none" id="IStickyCommand&lt;-JumpHeldCommand" style="stroke: #A80036; stroke-width: 1.0; stroke-dasharray: 7.0,7.0;"/><polygon fill="none" points="485.16,941.5658,477.74,921.7158,495.92,932.6058,485.16,941.5658" style="stroke: #A80036; stroke-width: 1.0;"/><!--MD5=[9878ef877f5e597bc50a5c76ad314146]
reverse link ICommand to JumpCommand--><path d="M723.46,739.2358 C735.37,786.7558 752.26,854.1658 759.72,883.9158 " fill="none" id="ICommand&lt;-JumpCommand" style="stroke: #A80036; stroke-width: 1.0; stroke-dasharray: 7.0,7.0;"/><polygon fill="none" points="716.62,740.7358,718.55,719.6358,730.2,737.3358,716.62,740.7358" style="stroke: #A80036; stroke-width: 1.0;"/><!--MD5=[55f401d406f9704d743ecbae1c84f215]
reverse link ICommand to UseCommand--><path d="M687.36,737.9658 C665.54,785.5458 634.19,853.8958 620.43,883.9158 " fill="none" id="ICommand&lt;-UseCommand" style="stroke: #A80036; stroke-width: 1.0; stroke-dasharray: 7.0,7.0;"/><polygon fill="none" points="681.07,734.8958,695.77,719.6358,693.79,740.7358,681.07,734.8958" style="stroke: #A80036; stroke-width: 1.0;"/><!--MD5=[b27b0b54317a5ef00a44e58d79f49998]
link CommandTimeline to TickRecord--><path d="M555.7992,380.4515 C555.7992,380.4515 564.89,435.1758 568.64,457.7558 " fill="none" id="CommandTimeline-TickRecord" style="stroke: #A80036; stroke-width: 1.0;"/><polygon fill="#A80036" points="570.8,470.7458,573.2625,461.2098,569.9762,465.8142,565.3719,462.5279,570.8,470.7458" style="stroke: #A80036; stroke-width: 1.0;"/><line style="stroke: #A80036; stroke-width: 1.0;" x1="569.9762" x2="568.67" y1="465.8142" y2="457.9258"/><polygon fill="#A80036" points="553.82,368.6158,550.8644,375.1934,555.7992,380.4515,558.7548,373.8739,553.82,368.6158" style="stroke: #A80036; stroke-width: 1.0;"/><text fill="#000000" font-family="sans-serif" font-size="13" lengthAdjust="spacingAndGlyphs" textLength="45" x="597.5" y="413.4129">ticks de</text><text fill="#000000" font-family="sans-serif" font-size="13" lengthAdjust="spacingAndGlyphs" textLength="109" x="565.5" y="431.1189">changement seuls</text><text fill="#000000" font-family="sans-serif" font-size="13" lengthAdjust="spacingAndGlyphs" textLength="20" x="547.7091" y="459.0987">0..*</text><!--MD5=[530dc4997b305223352db5fc1bbfc980]
link TickRecord to ICommand--><path d="M609.54,551.0358 C609.54,551.0358 657.94,615.4958 678.49,642.8758 " fill="none" id="TickRecord-ICommand" style="stroke: #A80036; stroke-width: 1.0;"/><polygon fill="#A80036" points="686.32,653.3058,684.1052,643.7092,683.3138,649.3105,677.7126,648.5191,686.32,653.3058" style="stroke: #A80036; stroke-width: 1.0;"/><line style="stroke: #A80036; stroke-width: 1.0;" x1="683.3138" x2="678.515" y1="649.3105" y2="642.9108"/><polygon fill="#FFFFFF" points="602.34,541.4358,602.74,548.6358,609.54,551.0358,609.14,543.8358,602.34,541.4358" style="stroke: #A80036; stroke-width: 1.0;"/><text fill="#000000" font-family="sans-serif" font-size="13" lengthAdjust="spacingAndGlyphs" textLength="20" x="659.2704" y="641.707">1..*</text><!--MD5=[7dd250943c8d266dacf3f38b933afd54]
link PlayerCommandInvoker to CommandTimeline--><path d="M1091.4255,229.6769 C1091.4255,229.6769 1051.78,176.7158 1023.5,162.5158 C928.97,115.0458 887.81,135.6658 785.5,162.5158 C738.08,174.9658 690.16,198.9858 649.56,223.4858 " fill="none" id="PlayerCommandInvoker-CommandTimeline" style="stroke: #A80036; stroke-width: 1.0;"/><polygon fill="#A80036" points="638.31,230.4058,648.072,229.1005,642.5696,227.7875,643.8826,222.2851,638.31,230.4058" style="stroke: #A80036; stroke-width: 1.0;"/><line style="stroke: #A80036; stroke-width: 1.0;" x1="642.5696" x2="649.385" y1="227.7875" y2="223.5958"/><polygon fill="#A80036" points="1097.7,239.9058,1097.9724,232.6999,1091.4255,229.6769,1091.1531,236.8829,1097.7,239.9058" style="stroke: #A80036; stroke-width: 1.0;"/><text fill="#000000" font-family="sans-serif" font-size="13" lengthAdjust="spacingAndGlyphs" textLength="129" x="826" y="141.4129">Record(tick, changed)</text><!--MD5=[73a5cab1d7f180036e4935f0cee164e6]
link ClonePlayback to CommandTimeline--><path d="M800.73,299.5158 C764.26,299.5158 722.56,299.5158 683.46,299.5158 " fill="none" id="ClonePlayback-&gt;CommandTimeline" style="stroke: #A80036; stroke-width: 1.0;"/><polygon fill="#A80036" points="678.21,299.5158,687.21,303.5158,683.21,299.5158,687.21,295.5158,678.21,299.5158" style="stroke: #A80036; stroke-width: 1.0;"/><text fill="#000000" font-family="sans-serif" font-size="13" lengthAdjust="spacingAndGlyphs" textLength="86" x="696.5" y="292.4129">GetAtTick(tick)</text><!--MD5=[44982fd64d5a7b5d70046e466a098284]
link PlayerCommandInvoker to ICommand--><path d="M1082.55,359.1558 C1039.38,415.7558 969.01,501.9258 896.5,565.0158 C858.71,597.8958 811.24,628.5058 773.72,650.6458 " fill="none" id="PlayerCommandInvoker-&gt;ICommand" style="stroke: #A80036; stroke-width: 1.0; stroke-dasharray: 7.0,7.0;"/><polygon fill="#A80036" points="769.19,653.3058,778.9773,652.206,773.5037,650.7776,774.9321,645.3041,769.19,653.3058" style="stroke: #A80036; stroke-width: 1.0;"/><text fill="#000000" font-family="sans-serif" font-size="13" lengthAdjust="spacingAndGlyphs" textLength="59" x="1029" y="502.4129">depuis les</text><text fill="#000000" font-family="sans-serif" font-size="13" lengthAdjust="spacingAndGlyphs" textLength="128" x="994.5" y="520.1189">changements d'input</text><text fill="#000000" font-family="sans-serif" font-size="13" lengthAdjust="spacingAndGlyphs" textLength="25" x="1048.157" y="380.5653">crée</text><!--MD5=[1a8b528f5dfabfceff8af2d1efa1c8d8]
link ClonePlayback to ICommand--><path d="M883.57,340.2658 C846.02,415.1858 765.28,576.2458 728.92,648.7758 " fill="none" id="ClonePlayback-&gt;ICommand" style="stroke: #A80036; stroke-width: 1.0; stroke-dasharray: 7.0,7.0;"/><polygon fill="#A80036" points="726.59,653.4258,734.2006,647.1746,728.8318,648.9566,727.0498,643.5877,726.59,653.4258" style="stroke: #A80036; stroke-width: 1.0;"/><text fill="#000000" font-family="sans-serif" font-size="13" lengthAdjust="spacingAndGlyphs" textLength="63" x="822.5" y="502.4129">ré-exécute</text><text fill="#000000" font-family="sans-serif" font-size="13" lengthAdjust="spacingAndGlyphs" textLength="67" x="820.5" y="520.1189">sur le clone</text><!--MD5=[edc0987bc6bc76b7ad3fffa87298ae05]
link ICommand to Player--><path d="M761.88,719.5958 C786.03,735.5658 814.68,755.8558 838.5,776.5158 C860.92,795.9558 883.59,819.3858 902.76,840.5258 " fill="none" id="ICommand-&gt;Player" style="stroke: #A80036; stroke-width: 1.0; stroke-dasharray: 7.0,7.0;"/><polygon fill="#A80036" points="906.29,844.4458,903.2425,835.0803,902.9452,840.7294,897.2961,840.4321,906.29,844.4458" style="stroke: #A80036; stroke-width: 1.0;"/><text fill="#000000" font-family="sans-serif" font-size="13" lengthAdjust="spacingAndGlyphs" textLength="92" x="829.5" y="764.4129">Execute(target)</text><!--MD5=[cb98ad9dc9c7c1870ae00160e2076475]
link Player to PlayerController--><path d="M952.5,955.5358 C952.5,984.0358 952.5,1018.7958 952.5,1047.2458 " fill="none" id="Player-&gt;PlayerController" style="stroke: #A80036; stroke-width: 1.0;"/><polygon fill="#A80036" points="952.5,1052.4858,956.5,1043.4858,952.5,1047.4858,948.5,1043.4858,952.5,1052.4858" style="stroke: #A80036; stroke-width: 1.0;"/><text fill="#000000" font-family="sans-serif" font-size="13" lengthAdjust="spacingAndGlyphs" textLength="85" x="953.5" y="1000.4129">Move / Jump /</text><text fill="#000000" font-family="sans-serif" font-size="13" lengthAdjust="spacingAndGlyphs" textLength="79" x="956.5" y="1018.1189">SetJumpHeld</text><!--MD5=[f62d10fdd75f09849abeaf8d8e0e477a]
link Player to InteractionDetector--><path d="M1017.08,955.6358 C1027.55,965.2858 1038.05,975.4658 1047.5,985.5158 C1073.02,1012.6658 1098.95,1046.4458 1116.56,1070.5458 " fill="none" id="Player-&gt;InteractionDetector" style="stroke: #A80036; stroke-width: 1.0;"/><polygon fill="#A80036" points="1119.53,1074.6258,1117.4674,1064.9954,1116.5874,1070.5834,1110.9994,1069.7035,1119.53,1074.6258" style="stroke: #A80036; stroke-width: 1.0;"/><text fill="#000000" font-family="sans-serif" font-size="13" lengthAdjust="spacingAndGlyphs" textLength="111" x="1079.5" y="1000.4129">Use → GetClosest()</text><text fill="#000000" font-family="sans-serif" font-size="13" lengthAdjust="spacingAndGlyphs" textLength="58" x="1106" y="1018.1189">.Interact()</text><!--MD5=[e75169a9d795ca82f44c33550e05f124]
link GameClock to PlayerCommandInvoker--><path d="M1075.82,87.7958 C1084.17,123.2158 1099.15,186.7658 1110.49,234.8458 " fill="none" id="GameClock-&gt;PlayerCommandInvoker" style="stroke: #A80036; stroke-width: 1.0;"/><polygon fill="#A80036" points="1111.64,239.7358,1113.4518,230.0551,1110.4845,234.8712,1105.6683,231.9039,1111.64,239.7358" style="stroke: #A80036; stroke-width: 1.0;"/><text fill="#000000" font-family="sans-serif" font-size="13" lengthAdjust="spacingAndGlyphs" textLength="55" x="1091.5" y="141.4129">Tick(t, dt)</text><!--MD5=[3f165bc200a18147f3dc3e3327d311f0]
link GameClock to ClonePlayback--><path d="M1043.07,87.7258 C1034.53,96.8658 1025.28,107.3558 1017.5,117.5158 C983.57,161.8758 950.16,216.5758 928.37,254.1658 " fill="none" id="GameClock-&gt;ClonePlayback" style="stroke: #A80036; stroke-width: 1.0;"/><polygon fill="#A80036" points="925.77,258.6658,933.735,252.8729,928.2707,254.3361,926.8074,248.8718,925.77,258.6658" style="stroke: #A80036; stroke-width: 1.0;"/><text fill="#000000" font-family="sans-serif" font-size="13" lengthAdjust="spacingAndGlyphs" textLength="55" x="1018.5" y="141.4129">Tick(t, dt)</text><!--MD5=[500dc42ca8e9963899cdbc1ac869d473]
link RewindDirector to CommandTimeline--><path d="M595.6,76.0658 C577.21,85.0958 557.24,98.5858 546.5,117.5158 C528.24,149.6958 525.93,190.5458 528.76,225.2958 " fill="none" id="RewindDirector-&gt;CommandTimeline" style="stroke: #A80036; stroke-width: 1.0; stroke-dasharray: 7.0,7.0;"/><polygon fill="#A80036" points="529.21,230.3758,532.398,221.0572,528.7676,225.3955,524.4294,221.765,529.21,230.3758" style="stroke: #A80036; stroke-width: 1.0;"/><text fill="#000000" font-family="sans-serif" font-size="13" lengthAdjust="spacingAndGlyphs" textLength="104" x="561" y="132.4129">SliceFromTick(T) /</text><text fill="#000000" font-family="sans-serif" font-size="13" lengthAdjust="spacingAndGlyphs" textLength="131" x="547.5" y="150.1189">TruncateAfterTick(T-1)</text><!--MD5=[96329cdf1896938780bc92accf1550c9]
link RewindDirector to ClonePlayback--><path d="M649.04,76.2958 C665.03,95.4058 693.92,128.7658 721.5,154.5158 C760.41,190.8458 807.64,228.0358 844.23,255.5158 " fill="none" id="RewindDirector-&gt;ClonePlayback" style="stroke: #A80036; stroke-width: 1.0; stroke-dasharray: 7.0,7.0;"/><polygon fill="#A80036" points="848.64,258.8258,843.84,250.2258,844.64,255.8258,839.04,256.6258,848.64,258.8258" style="stroke: #A80036; stroke-width: 1.0;"/><text fill="#000000" font-family="sans-serif" font-size="13" lengthAdjust="spacingAndGlyphs" textLength="94" x="722.5" y="132.4129">instancie l'écho,</text><text fill="#000000" font-family="sans-serif" font-size="13" lengthAdjust="spacingAndGlyphs" textLength="79" x="730" y="150.1189">Play(tranche)</text><!--MD5=[992db08d68a735333412e95194bf2fdf]
@startuml command-pattern-class-diagram-fr
title Le patron Command dans PlatformerMCR — enregistrer une fois, rejouer sur les clones

skinparam shadowing false
skinparam classAttributeIconSize 0
skinparam defaultFontName sans-serif
skinparam packageStyle rectangle
hide empty members

package "Invocateurs (deux)" {
    class PlayerCommandInvoker <<Invocateur — direct>> {
        -lastMove : Vector2
        -lastJumpHeld : bool
        +Timeline : CommandTimeline
        +Tick(tick : int, dt : float)
    }
    class ClonePlayback <<Invocateur — rejeu>> {
        +Play(recording : CommandTimeline)
        +Tick(tick : int, dt : float)
    }
}

package "Enregistrement (historique)" {
    class CommandTimeline {
        -frames : List<TickRecord>
        -recordingEndTick : int
        +Record(tick : int, changed : List<ICommand>)
        +GetAtTick(tick : int) : TickRecord
        +SliceFromTick(fromTick : int) : CommandTimeline
        +TruncateAfterTick(tick : int)
    }
    class TickRecord {
        +Tick : int
        +Commands : List<ICommand>
    }
}

package "Commands (l'intention sous forme d'objets)" {
    interface ICommand <<Command>> {
        +Execute(target : Player)
    }
    interface IStickyCommand <<marqueur>>

    class MoveCommand {
        -direction : Vector2
    }
    class JumpHeldCommand {
        -held : bool
    }
    class JumpCommand
    class UseCommand
}

package "Récepteurs" {
    class Player <<Récepteur (façade)>> {
        +Move(direction : Vector2)
        +Jump()
        +SetJumpHeld(held : bool)
        +Use()
    }
    class PlayerController {
        +SetDirection(d : Vector2)
        +RequestJump()
        +SetJumpHeld(held : bool)
        +Tick(tick : int, dt : float)
    }
    class InteractionDetector {
        +GetClosest() : IInteractable
    }
}

class RewindDirector
class GameClock {
    +Tick : int
}

ICommand <|- - IStickyCommand
IStickyCommand <|.. MoveCommand
IStickyCommand <|.. JumpHeldCommand
ICommand <|.. JumpCommand
ICommand <|.. UseCommand

CommandTimeline *-down-> "0..*" TickRecord : ticks de\nchangement seuls
TickRecord o-down-> "1..*" ICommand

PlayerCommandInvoker *-right-> CommandTimeline : Record(tick, changed)
ClonePlayback -right-> CommandTimeline : GetAtTick(tick)
PlayerCommandInvoker .down.> ICommand : « crée » depuis les\nchangements d'input
ClonePlayback .down.> ICommand : ré-exécute\nsur le clone

ICommand .down.> Player : Execute(target)
Player -down-> PlayerController : Move / Jump /\nSetJumpHeld
Player -down-> InteractionDetector : Use → GetClosest()\n.Interact()

GameClock -down-> PlayerCommandInvoker : Tick(t, dt)
GameClock -down-> ClonePlayback : Tick(t, dt)
RewindDirector .down.> CommandTimeline : SliceFromTick(T) /\nTruncateAfterTick(T-1)
RewindDirector .down.> ClonePlayback : instancie l'écho,\nPlay(tranche)

note as N1
    **L'adaptation clé :** le récepteur est passé
    à Execute, **pas stocké dans la commande**
    → la même instance enregistrée pilote le
    joueur en direct, puis un clone.
end note
N1 .. ICommand

note as N2
    Sticky = l'effet persiste jusqu'au changement
    → journalisé uniquement au changement (journal creux) ;
    une tranche ré-établit l'état sticky à son départ.
end note
N2 .. IStickyCommand

@enduml

PlantUML version 1.2020.02(Sun Mar 01 11:22:07 CET 2020)
(GPL source distribution)
Java Runtime: OpenJDK Runtime Environment
JVM: OpenJDK 64-Bit Server VM
Java Version: 25+36-LTS
Operating System: Linux
Default Encoding: UTF-8
Language: en
Country: US
--></g></svg>